<?xml version="1.0" encoding="UTF-8" standalone="no" ?>
<svg xmlns="http://www.w3.org/2000/svg" xmlns:xlink="http://www.w3.org/1999/xlink" version="1.1" width="500" height="500" viewBox="0 0 500 500" xml:space="preserve">
<desc>Created with Fabric.js 4.6.0</desc>
<defs>
</defs>
<g transform="matrix(0.97 0 0 0.97 249.11 257.46)" id="DTq4GX7QWEIblb43T2TOZ"  >
<path style="stroke: rgb(0,0,0); stroke-width: 20; stroke-dasharray: none; stroke-linecap: butt; stroke-dashoffset: 0; stroke-linejoin: miter; stroke-miterlimit: 4; fill: rgb(255,0,0); fill-rule: nonzero; opacity: 1;" vector-effect="non-scaling-stroke"  transform=" translate(0, 0)" d="M 0 190 L -20 190 L -20 170 L -40 170 L -40 150 L -60 150 L -60 130 L -80 130 L -80 110 L -100 110 L -100 90 L -120 90 L -120 70 L -140 70 L -140 50 L -160 50 L -160 30 L -180 30 L -180 10 L -200 10 L -200 -10 L -220 -10 L -220 -50 L -240 -50 L -240 -110 L -220 -110 L -220 -150 L -200 -150 L -200 -170 L -180 -170 L -160 -170 L -160 -190 L -100 -190 L -100 -170 L -60 -170 L -60 -150 L -40 -150 L -40 -130 L -20 -130 L -20 -110 L 20 -110 L 20 -130 L 40 -130 L 40 -150 L 60 -150 L 60 -170 L 100 -170 L 100 -190 L 160 -190 L 160 -170 L 200 -170 L 200 -150 L 220 -150 L 220 -110 L 240 -110 L 240 -50 L 220 -50 L 220 -10 L 200 -10 L 200 10 L 180 10 L 180 30 L 160 30 L 160 50 L 140 50 L 140 70 L 120 70 L 120 90 L 100 90 L 100 110 L 80 110 L 80 130 L 60 130 L 60 150 L 40 150 L 40 170 L 20 170 L 20 190 z" stroke-linecap="round" />
</g>
</svg>
