<svg width="48" height="48" version="1.1" xmlns="http://www.w3.org/2000/svg" desc="Created with imagetracer.js version 1.2.6" ><path fill="rgb(0,0,0)" stroke="rgb(0,0,0)" stroke-width="1" opacity="0" d="M 0 0 L 48 0 L 48 48 L 0 48 L 0 0 Z M 10 9 L 10 13 L 18 13 L 18 9 L 10 9 Z M 30 9 L 30 13 L 38 13 L 38 9 L 30 9 Z M 6 13 L 6 25 L 10 25 L 10 13 L 6 13 Z M 18 13 L 18 17 L 22 17 L 22 13 L 18 13 Z M 26 13 L 26 17 L 30 17 L 30 13 L 26 13 Z M 38 13 L 38 25 L 42 25 L 42 13 L 38 13 Z M 22 17 L 22 21 L 26 21 L 26 17 L 22 17 Z M 10 25 L 10 29 L 14 29 L 14 25 L 10 25 Z M 34 25 L 34 29 L 38 29 L 38 25 L 34 25 Z M 14 29 L 14 33 L 18 33 L 18 29 L 14 29 Z M 30 29 L 30 33 L 34 33 L 34 29 L 30 29 Z M 18 33 L 18 37 Q 21 36 22 39 L 22 41 L 26 41 L 26 37 L 22 37 L 22 33 L 18 33 Z M 26 33 L 26 37 L 30 37 L 30 33 L 26 33 Z " /><path fill="rgb(0,0,0)" stroke="rgb(0,0,0)" stroke-width="1" opacity="1" d="M 10 9 L 18 9 L 18 13 L 22 13 L 22 17 L 26 17 L 26 13 L 30 13 L 30 9 L 38 9 L 38 13 Q 41.88 12.5 42 13.5 L 42 25 L 38 25 L 38 29 L 34 29 L 34 33 L 30 33 L 30 37 L 26 37 L 26 41 L 22 41 L 22 37 L 18 37 L 18 33 L 14 33 L 14 29 L 10 29 L 10 25 L 6 25 L 6 13 L 10 13 L 10 9 Z M 10 13 L 10 25 L 14 25 L 14 29 L 18 29 L 18 33 L 22 33 L 22 37 L 26 37 L 26 33 L 30 33 L 30 29 L 34 29 L 34 25 L 38 25 L 38 13 L 30 13 L 30 17 L 26 17 L 26 21 L 22 21 L 22 17 L 18 17 L 18 13 L 10 13 Z " /><path fill="rgb(0,0,0)" stroke="rgb(0,0,0)" stroke-width="1" opacity="0.3333333333333333" d="M 21.5 37 L 21.5 38 L 21.5 37 Z " /></svg>