<?xml version="1.0" encoding="UTF-8" standalone="no" ?>
<svg xmlns="http://www.w3.org/2000/svg" xmlns:xlink="http://www.w3.org/1999/xlink" version="1.1" width="500" height="500" viewBox="0 0 500 500" xml:space="preserve">
<desc>Created with Fabric.js 4.6.0</desc>
<defs>
</defs>
<g transform="matrix(1 0 0 1 107.06 336.34)" id="_bd0rcio5ZSMJTQg2liNS"  >
<path class="base" style="stroke: rgb(0,0,0); stroke-width: 1; stroke-dasharray: none; stroke-linecap: round; stroke-dashoffset: 0; stroke-linejoin: round; stroke-miterlimit: 10; fill: none; fill-rule: nonzero; opacity: 1;" vector-effect="non-scaling-stroke"  transform=" translate(-107.06, -336.34)" d="M 107.0598844111758 336.335403726708 L 107.06188441117581 336.335403726708" stroke-linecap="round" />
</g>
<g transform="matrix(1 0 0 1 250 370)" id="7D3z2Y6mEVU0jHg_BjY59"  >
<path class="base" style="stroke: rgb(0,0,0); stroke-width: 1; stroke-dasharray: none; stroke-linecap: butt; stroke-dashoffset: 0; stroke-linejoin: miter; stroke-miterlimit: 4; fill: rgb(0,0,0); fill-rule: nonzero; opacity: 1;" vector-effect="non-scaling-stroke"  transform=" translate(0, 0)" d="M -190 -70 L -190 50 L -170 50 L -170 70 L 170 70 L 170 50 L 190 50 L 190 -70 L 150 -70 L 150 30 L -150 30 L -150 -70 z" stroke-linecap="round" />
</g>
<g transform="matrix(1 0 0 1 240 190)" id="2xWvldH_KExWiEd3u7QJY"  >
<path class="base" style="stroke: rgb(0,0,0); stroke-width: 1; stroke-dasharray: none; stroke-linecap: butt; stroke-dashoffset: 0; stroke-linejoin: miter; stroke-miterlimit: 4; fill: rgb(0,0,0); fill-rule: nonzero; opacity: 1;" vector-effect="non-scaling-stroke"  transform=" translate(0, 0)" d="M -60 130 L -60 30 L -140 30 L -140 -10 L -120 -10 L -120 -30 L -100 -30 L -100 -50 L -80 -50 L -80 -70 L -60 -70 L -60 -90 L -40 -90 L -40 -110 L -20 -110 L -20 -130 L 20 -130 L 20 -110 L 40 -110 L 40 -90 L 60 -90 L 60 -70 L 80 -70 L 80 -50 L 100 -50 L 100 -30 L 120 -30 L 120 -10 L 140 -10 L 140 30 L 60 30 L 60 130 z" stroke-linecap="round" />
</g>
  <style>
    .base{
      fill: white !important;
      stroke: white !important;
    }
  </style>
</svg>
